<?xml version="1.0" encoding="UTF-8"?>
<svg id="Layer_1" data-name="Layer 1" xmlns="http://www.w3.org/2000/svg" xmlns:xlink="http://www.w3.org/1999/xlink" viewBox="0 0 257.55 275.52">
  <defs>
    <style>
      .cls-1 {
        fill: url(#linear-gradient-2);
      }

      .cls-2 {
        fill: url(#New_Gradient_Swatch_copy_2);
      }

      .cls-3 {
        mask: url(#mask-2);
      }

      .cls-4 {
        fill: url(#linear-gradient-6);
      }

      .cls-5 {
        clip-path: url(#clippath-2);
      }

      .cls-6 {
        mask: url(#mask-3);
      }

      .cls-7, .cls-8, .cls-9, .cls-10, .cls-11 {
        fill-rule: evenodd;
      }

      .cls-7, .cls-12 {
        fill: #26316c;
      }

      .cls-13 {
        clip-path: url(#clippath-1);
      }

      .cls-8 {
        fill: #e5e65d;
      }

      .cls-14 {
        mask: url(#mask-5);
      }

      .cls-9 {
        fill: #b7205a;
      }

      .cls-10 {
        fill: #fae0a4;
      }

      .cls-15 {
        mask: url(#mask-4);
      }

      .cls-16 {
        fill: url(#linear-gradient-5);
      }

      .cls-11 {
        fill: #116c61;
      }

      .cls-17 {
        clip-path: url(#clippath);
      }

      .cls-18 {
        clip-rule: evenodd;
        fill: none;
      }

      .cls-19 {
        fill: url(#linear-gradient-7);
      }

      .cls-20 {
        fill: url(#New_Gradient_Swatch_copy);
      }

      .cls-21 {
        mask: url(#mask-1);
      }

      .cls-22 {
        mask: url(#mask);
      }

      .cls-23 {
        fill: url(#linear-gradient-3);
      }

      .cls-24 {
        fill: url(#linear-gradient);
      }

      .cls-25 {
        fill: url(#linear-gradient-4);
      }
    </style>
    <clipPath id="clippath">
      <path class="cls-18" d="M206.87,103.9c.47,7.02-.21,17.24-.21,33.86,0,53.01,6.96,40.95-38.94,67.45-9.92,5.73-17.05,10.22-22.59,13.47,16.9,6.96,51.73,19.26,76.37,14.06,10.92-6.78,19.94-14.6,26.58-26.1,7.18-12.43,9.25-25.13,9.38-39.22,.09-9.86-.37-19.78-.37-29.66s.46-19.8,.37-29.66c-.13-14.09-2.2-26.79-9.38-39.22-7.18-12.43-17.14-20.57-29.28-27.73-8.49-5.01-17.31-9.57-25.87-14.51-5.43-3.14-10.78-6.44-16.16-9.67,23.05,21.4,29.01,75.02,29.95,85.24,.06,.54,.1,1.11,.14,1.69,0,0,0,0,0,0"/>
    </clipPath>
    <linearGradient id="New_Gradient_Swatch_copy_2" data-name="New Gradient Swatch copy 2" x1="-17935.16" y1="2045.47" x2="-17884.28" y2="1892.81" gradientTransform="translate(18112.95 -1847.34)" gradientUnits="userSpaceOnUse">
      <stop offset="0" stop-color="#00998e"/>
      <stop offset="1" stop-color="#b0d035"/>
    </linearGradient>
    <clipPath id="clippath-1">
      <path class="cls-18" d="M89.83,70.31c45.91-26.5,31.98-26.5,77.89,0,9.92,5.73,17.37,9.66,22.96,12.83-2.42-18.11-9.19-54.43-26.01-73.17C153.34,3.9,142.06,0,128.78,0c-14.36,0-26.39,4.56-38.66,11.49-8.59,4.85-16.94,10.21-25.5,15.15-8.56,4.94-17.38,9.5-25.87,14.51-12.13,7.16-22.1,15.3-29.28,27.73C2.3,81.31,.23,94.01,.09,108.1c-.09,9.86,.37,19.78,.37,29.66,0,6.27-.19,12.55-.3,18.83,7.01-30.66,50.47-62.64,58.85-68.56,.44-.32,.91-.64,1.39-.97,5.84-3.92,15.04-8.44,29.43-16.75"/>
    </clipPath>
    <linearGradient id="New_Gradient_Swatch_copy" data-name="New Gradient Swatch copy" x1="-18130.88" y1="1923.72" x2="-17956.8" y2="1926.66" gradientTransform="translate(18112.95 -1847.34)" gradientUnits="userSpaceOnUse">
      <stop offset="0" stop-color="#ffcd4b"/>
      <stop offset="1" stop-color="#d83d7a"/>
    </linearGradient>
    <clipPath id="clippath-2">
      <path class="cls-18" d="M89.83,205.21c-45.91-26.5-38.94-14.44-38.94-67.45,0-11.46-.33-19.87-.37-26.3C36.04,122.61,7.97,146.63,.16,170.57c.41,12.84,2.68,24.57,9.32,36.07,7.18,12.43,17.14,20.57,29.28,27.73,8.49,5.01,17.31,9.57,25.87,14.51,8.56,4.94,16.91,10.3,25.5,15.15,12.27,6.93,24.3,11.49,38.66,11.49s26.39-4.56,38.66-11.49c8.59-4.85,16.94-10.21,25.5-15.15,5.43-3.13,10.96-6.12,16.45-9.16-29.97,9.23-79.2-12.27-88.72-16.65-.54-.24-1.08-.49-1.62-.76,0,0-.01,0-.02-.01-6.32-3.1-14.82-8.8-29.2-17.1"/>
    </clipPath>
    <linearGradient id="linear-gradient" x1="-18108.17" y1="1960.23" x2="-17915.58" y2="2115.46" gradientTransform="translate(18112.95 -1847.34)" gradientUnits="userSpaceOnUse">
      <stop offset="0" stop-color="#174a8b"/>
      <stop offset="1" stop-color="#c9258d"/>
    </linearGradient>
    <linearGradient id="linear-gradient-2" x1="-20836.25" y1="2570.97" x2="-20546.32" y2="2410.03" gradientTransform="translate(20720.58 -2389.74)" gradientUnits="userSpaceOnUse">
      <stop offset="0" stop-color="#fff"/>
      <stop offset="1" stop-color="#000"/>
    </linearGradient>
    <mask id="mask" x=".08" width="190.6" height="128.16" maskUnits="userSpaceOnUse">
      <rect class="cls-1" x=".08" width="190.6" height="128.16"/>
    </mask>
    <linearGradient id="linear-gradient-3" x1="-20746.32" y1="2122.46" x2="-20865.98" y2="2380.17" gradientTransform="translate(21028.89 -2164.81)" xlink:href="#linear-gradient-2"/>
    <mask id="mask-1" x="145.13" y="31.34" width="112.34" height="202.65" maskUnits="userSpaceOnUse">
      <rect class="cls-23" x="145.13" y="31.34" width="112.34" height="202.65"/>
    </mask>
    <linearGradient id="linear-gradient-4" x1="-20412.54" y1="2425.71" x2="-20671.7" y2="2238.74" gradientTransform="translate(20720.75 -2076.54)" xlink:href="#linear-gradient-2"/>
    <mask id="mask-2" x=".16" y="111.46" width="184.52" height="164.06" maskUnits="userSpaceOnUse">
      <rect class="cls-25" x=".16" y="111.46" width="184.52" height="164.06"/>
    </mask>
    <linearGradient id="linear-gradient-5" x1="-20770.25" y1="2233.54" x2="-20645.41" y2="2398.62" gradientTransform="translate(20773.04 -2135.71)" xlink:href="#linear-gradient-2"/>
    <mask id="mask-3" x="24.76" y="117.41" width="84.18" height="130.27" maskUnits="userSpaceOnUse">
      <rect class="cls-16" x="24.76" y="117.41" width="84.18" height="130.27"/>
    </mask>
    <linearGradient id="linear-gradient-6" x1="-20891.16" y1="2456.66" x2="-20810.62" y2="2266" gradientTransform="translate(21039.74 -2193.47)" xlink:href="#linear-gradient-2"/>
    <mask id="mask-4" x="150.24" y="99.98" width="83.66" height="120.53" maskUnits="userSpaceOnUse">
      <rect class="cls-4" x="150.24" y="99.98" width="83.66" height="120.53"/>
    </mask>
    <linearGradient id="linear-gradient-7" x1="-20587.6" y1="2531.53" x2="-20792.99" y2="2557.11" gradientTransform="translate(20812.87 -2491.6)" xlink:href="#linear-gradient-2"/>
    <mask id="mask-5" x="43.5" y="27.22" width="141.98" height="53.02" maskUnits="userSpaceOnUse">
      <rect class="cls-19" x="43.5" y="27.22" width="141.98" height="53.02"/>
    </mask>
  </defs>
  <g class="cls-17">
    <rect class="cls-2" x="145.13" y="16.96" width="112.42" height="220.98"/>
  </g>
  <g class="cls-13">
    <rect class="cls-20" width="190.68" height="156.58"/>
  </g>
  <g class="cls-5">
    <rect class="cls-24" x=".16" y="111.46" width="209.23" height="164.06"/>
  </g>
  <g class="cls-22">
    <path class="cls-10" d="M128.78,27.22c36.06,0,49.81,24.01,56.7,53.02,1.89,1.04,3.62,2,5.2,2.9-2.42-18.11-9.19-54.43-26.01-73.17C153.34,3.9,142.06,0,128.78,0c-14.36,0-26.39,4.56-38.66,11.49-8.59,4.85-16.94,10.21-25.5,15.15-4.51,2.6-9.09,5.1-13.65,7.61-4.1,2.26-8.2,4.53-12.22,6.9-12.13,7.16-22.1,15.3-29.28,27.73C3.64,78.98,1.18,89.27,.39,100.33c-.18,2.55-.27,5.14-.3,7.77-.06,6.67,.13,13.37,.26,20.06,.31-4.73,.92-9.32,1.96-13.81,1.44-6.23,3.71-12.27,7.17-18.26,7.18-12.43,17.14-20.57,29.28-27.73,4.02-2.37,8.11-4.64,12.22-6.9,4.57-2.51,9.15-5.01,13.65-7.61,8.56-4.94,16.91-10.3,25.5-15.15,12.27-6.93,24.3-11.49,38.66-11.49"/>
  </g>
  <g class="cls-21">
    <path class="cls-8" d="M224.51,193.03c-18.03,31.23-45.7,31.13-74.27,22.6-1.85,1.12-3.54,2.14-5.11,3.06,16.9,6.96,51.73,19.26,76.37,14.06,10.92-6.78,19.94-14.6,26.58-26.1,7.18-12.43,9.25-25.13,9.38-39.22,.09-9.86-.37-19.78-.37-29.66,0-5.2,.13-10.42,.24-15.63,.1-4.68,.18-9.36,.13-14.03-.13-14.09-2.2-26.79-9.38-39.22-5.83-10.11-13.51-17.38-22.69-23.59-2.12-1.43-4.31-2.81-6.58-4.15-5.75-3.39-11.64-6.57-17.5-9.81,3.94,2.63,7.61,5.45,10.98,8.6,4.68,4.36,8.77,9.35,12.23,15.33,7.18,12.43,9.25,25.13,9.38,39.22,.04,4.67-.04,9.35-.13,14.03-.11,5.21-.24,10.42-.24,15.63,0,9.88,.46,19.8,.37,29.66-.13,14.09-2.2,26.79-9.38,39.22"/>
  </g>
  <g class="cls-3">
    <path class="cls-10" d="M33.05,193.03c-18.03-31.23-4.11-55.14,17.56-75.62-.04-2.16-.08-4.13-.09-5.95C36.04,122.61,7.97,146.63,.16,170.57c.41,12.84,2.68,24.57,9.32,36.07,7.18,12.43,17.14,20.57,29.28,27.73,8.49,5.01,17.31,9.57,25.87,14.51,4.51,2.6,8.96,5.32,13.42,8.02,4.01,2.42,8.02,4.83,12.08,7.13,12.27,6.93,24.3,11.49,38.66,11.49,11.67,0,21.8-3.01,31.77-7.86,2.3-1.12,4.59-2.33,6.88-3.63,5.81-3.28,11.51-6.79,17.24-10.25-4.25,2.1-8.53,3.86-12.94,5.21-6.12,1.87-12.49,2.92-19.39,2.92-14.36,0-26.39-4.56-38.66-11.49-4.06-2.29-8.08-4.7-12.08-7.13-4.46-2.7-8.91-5.42-13.42-8.02-8.56-4.94-17.38-9.5-25.87-14.51-12.13-7.16-22.1-15.3-29.28-27.73"/>
  </g>
  <g>
    <g class="cls-6">
      <path class="cls-7" d="M108.94,247.68c-53.88-31.94-23.87-45.19-23.87-45.19-40.65-23-34.18-13.63-34.18-64.73,0-8.22-.17-14.87-.28-20.35-21.67,20.47-35.59,44.39-17.56,75.62,7.18,12.43,17.14,20.57,29.28,27.73,8.49,5.01,17.31,9.57,25.87,14.51,4.51,2.6,8.96,5.32,13.42,8.02,2.44,1.48,4.88,2.95,7.33,4.39"/>
    </g>
    <g class="cls-15">
      <path class="cls-11" d="M233.89,99.98c-.72,62.64-27.2,43.27-27.2,43.27,.41,46.7,5.28,36.42-38.97,61.97-7.12,4.11-12.79,7.58-17.48,10.41,28.57,8.53,56.24,8.63,74.27-22.6,7.18-12.43,9.25-25.13,9.38-39.22,.09-9.86-.37-19.78-.37-29.66,0-5.2,.13-10.42,.24-15.63,.06-2.85,.11-5.7,.13-8.54"/>
    </g>
    <g class="cls-14">
      <path class="cls-9" d="M43.5,65.62c54.6-30.69,51.07,1.92,51.07,1.92,40.24-23.71,28.9-22.78,73.15,2.76,7.12,4.11,12.96,7.29,17.76,9.93-6.89-29.01-20.64-53.02-56.7-53.02-14.36,0-26.39,4.56-38.66,11.49-8.59,4.85-16.94,10.21-25.5,15.15-4.51,2.6-9.09,5.1-13.65,7.61-2.5,1.37-4.99,2.75-7.46,4.16"/>
    </g>
  </g>
  <path class="cls-12" d="M91.73,156.35c0,1.14,.42,2.12,1.25,2.94,.84,.81,1.8,1.22,2.9,1.22s2.12-.41,2.94-1.22c.81-.81,1.22-1.79,1.22-2.94v-35.76c0-1.14-.42-2.12-1.25-2.94-.84-.81-1.8-1.22-2.9-1.22s-2.12,.41-2.94,1.22c-.82,.82-1.22,1.79-1.22,2.94v35.76Z"/>
  <path class="cls-12" d="M104.2,145.46c0,2.2,.43,4.28,1.29,6.24,.86,1.96,2.03,3.67,3.53,5.15,1.49,1.47,3.22,2.64,5.18,3.5,1.96,.86,4.06,1.29,6.3,1.29,1.67,0,3.28-.26,4.82-.79,1.54-.53,2.96-1.25,4.26-2.18,1.3-.92,2.45-2,3.46-3.23,1.01-1.23,1.83-2.55,2.44-3.96,.22-.44,.33-.97,.33-1.58,0-1.01-.36-1.95-1.09-2.8-.73-.86-1.73-1.29-3-1.29-.79,0-1.53,.16-2.21,.49-.68,.33-1.2,.98-1.55,1.95-.62,1.45-1.59,2.66-2.94,3.63-1.34,.97-2.85,1.45-4.52,1.45-1.1,0-2.13-.21-3.1-.63-.97-.42-1.82-.98-2.54-1.68-.72-.7-1.3-1.53-1.71-2.47-.42-.94-.63-1.97-.63-3.07v-14.05c0-1.1,.21-2.12,.63-3.07,.42-.95,.99-1.77,1.71-2.47,.73-.7,1.57-1.26,2.54-1.68,.97-.42,2-.63,3.1-.63,1.72,0,3.22,.48,4.52,1.45,1.3,.97,2.25,2.15,2.87,3.56,.35,.84,.88,1.46,1.58,1.88,.7,.42,1.45,.63,2.24,.63,1.28,0,2.28-.43,3-1.29,.73-.86,1.09-1.79,1.09-2.8,0-.35-.03-.71-.1-1.09-.07-.37-.21-.74-.43-1.09-1.28-2.82-3.23-5.11-5.87-6.9-2.64-1.78-5.61-2.67-8.91-2.67-2.24,0-4.35,.42-6.33,1.25-1.98,.84-3.71,1.99-5.18,3.46-1.47,1.47-2.64,3.19-3.5,5.15-.86,1.96-1.29,4.06-1.29,6.3v14.05Z"/>
  <path class="cls-12" d="M139.66,145.59c-.77,.79-1.15,1.78-1.15,2.97,0,.62,.15,1.28,.46,1.98,1.06,2.33,2.38,4.18,3.96,5.54,1.58,1.36,3.15,2.39,4.72,3.07,1.56,.68,2.98,1.12,4.26,1.32,1.28,.2,2.13,.3,2.57,.3,2.29,0,4.44-.3,6.47-.89,2.02-.59,3.79-1.47,5.31-2.64,1.52-1.16,2.71-2.63,3.6-4.39,.88-1.76,1.32-3.8,1.32-6.14s-.44-4.29-1.32-6c-.88-1.72-2.07-3.16-3.56-4.32-1.5-1.16-3.23-2.05-5.21-2.64-1.98-.59-4.09-.89-6.33-.89-1.85,0-3.41-.32-4.69-.96-1.28-.64-1.91-1.7-1.91-3.2,0-1.1,.48-2.08,1.45-2.94,.97-.86,2.66-1.29,5.08-1.29,1.28,0,2.32,.28,3.13,.82,.81,.55,1.54,1.14,2.18,1.78,.64,.64,1.29,1.23,1.95,1.78,.66,.55,1.47,.82,2.44,.82,.62,0,1.18-.13,1.68-.4,.51-.26,.93-.59,1.29-.99,.35-.4,.63-.84,.83-1.32,.2-.48,.3-.95,.3-1.39,0-.92-.22-1.72-.66-2.38-1.01-1.76-2.26-3.11-3.73-4.06-1.47-.95-2.89-1.64-4.26-2.08-1.36-.44-2.54-.7-3.53-.79-.99-.09-1.51-.13-1.55-.13-2.24,0-4.28,.29-6.1,.86-1.83,.57-3.39,1.4-4.69,2.47-1.3,1.08-2.3,2.4-3,3.96-.7,1.56-1.06,3.31-1.06,5.25,0,2.11,.37,3.95,1.12,5.51s1.78,2.85,3.1,3.86c1.32,1.01,2.89,1.77,4.72,2.28,1.83,.51,3.79,.76,5.91,.76,1.06,0,2.07,.11,3.03,.33,.97,.22,1.83,.56,2.57,1.02,.75,.46,1.34,1.04,1.78,1.75,.44,.7,.66,1.54,.66,2.51s-.23,1.81-.69,2.54-1.07,1.32-1.81,1.78c-.75,.46-1.61,.81-2.57,1.06-.97,.24-1.96,.36-2.97,.36-1.94,0-3.59-.45-4.95-1.35-1.36-.9-2.35-1.99-2.97-3.27-.44-.97-1.02-1.78-1.75-2.44-.73-.66-1.57-.99-2.54-.99-1.14,0-2.1,.4-2.87,1.19Z"/>
</svg>